<?xml version="1.0" encoding="UTF-8" standalone="no"?>
<!DOCTYPE svg PUBLIC "-//W3C//DTD SVG 1.1//EN" "http://www.w3.org/Graphics/SVG/1.1/DTD/svg11.dtd">
<svg width="100%" height="100%" viewBox="0 0 58 58" version="1.1" xmlns="http://www.w3.org/2000/svg" xmlns:xlink="http://www.w3.org/1999/xlink" xml:space="preserve" xmlns:serif="http://www.serif.com/" style="fill-rule:evenodd;clip-rule:evenodd;stroke-linejoin:round;stroke-miterlimit:2;">
    <g transform="matrix(1,0,0,1,-5350.19,-17.3587)">
        <g transform="matrix(1,0,0,1,1351.71,269.762)">
            <g id="plus" transform="matrix(4.07358,0,0,4.07358,3978.12,-272.763)">
                <path d="M18.999,12.038C18.999,12.293 18.898,12.537 18.718,12.717C18.538,12.897 18.294,12.998 18.039,12.998C16.345,12.998 12.999,12.998 12.999,12.998L12.999,18.038C12.999,18.293 12.898,18.537 12.718,18.717C12.538,18.897 12.294,18.998 12.039,18.998C12.013,18.998 11.986,18.998 11.959,18.998C11.705,18.998 11.461,18.897 11.281,18.717C11.101,18.537 10.999,18.293 10.999,18.038C10.999,16.343 10.999,12.998 10.999,12.998L5.959,12.998C5.705,12.998 5.461,12.897 5.281,12.717C5.1,12.537 4.999,12.293 4.999,12.038C4.999,12.011 4.999,11.985 4.999,11.958C4.999,11.703 5.1,11.459 5.281,11.279C5.461,11.099 5.705,10.998 5.959,10.998C7.654,10.998 10.999,10.998 10.999,10.998L10.999,5.958C10.999,5.703 11.101,5.459 11.281,5.279C11.461,5.099 11.705,4.998 11.959,4.998C11.986,4.998 12.013,4.998 12.039,4.998C12.294,4.998 12.538,5.099 12.718,5.279C12.898,5.459 12.999,5.703 12.999,5.958C12.999,7.653 12.999,10.998 12.999,10.998L18.039,10.998C18.294,10.998 18.538,11.099 18.718,11.279C18.898,11.459 18.999,11.703 18.999,11.958C18.999,11.985 18.999,12.011 18.999,12.038Z" style="fill:rgb(3,0,22);fill-rule:nonzero;"/>
            </g>
        </g>
    </g>
</svg>
